<?xml version="1.0" encoding="UTF-8"?>
<svg id="Layer_1" xmlns="http://www.w3.org/2000/svg" viewBox="0 0 200 200">
    <rect x="100" width="100" height="100"/>
    <rect y="100" width="100" height="100"/>
    <g>
        <path d="M100,100v100h100V100H100Zm93.75,93.75H106.25V106.25h87.5v87.5Z"/>
        <path d="M120.65,135.46l16.33,40.54h1.35l13.55-32.01,12.3,32.01h1.43l15.56-40.98c1.39-3.49,2.16-5.38,2.31-5.68,.49-.9,1.05-1.57,1.68-2.01,.63-.44,1.42-.7,2.34-.77v-1.35h-12.89v1.35c1.93,.05,3.23,.36,3.92,.93,.68,.57,1.03,1.36,1.03,2.36,0,.68-.1,1.43-.29,2.23-.2,.81-.72,2.31-1.57,4.5l-8.09,21.28-9.05-23.51c-1.1-2.88-1.65-4.6-1.65-5.16,0-.51,.15-.97,.44-1.37,.29-.4,.7-.69,1.21-.86,.73-.24,1.94-.38,3.63-.4v-1.35h-24.06v1.35c1.54,0,2.7,.21,3.5,.62,.79,.42,1.5,1.1,2.11,2.07,.61,.96,1.48,2.89,2.6,5.77l2.05,5.27-7.8,18.82-9.74-24.1c-1.2-3-1.79-4.97-1.79-5.9,0-.71,.29-1.3,.86-1.78,.57-.48,1.73-.74,3.46-.79v-1.35h-21.53v1.35c1.56,.15,2.67,.65,3.33,1.5,.66,.85,1.82,3.32,3.48,7.4Z"/>
    </g>
    <g>
        <path d="M38.76,72.81c4.11,2.12,8.82,3.19,14.12,3.19,4.03,0,7.55-.65,10.57-1.96,3.01-1.31,5.91-3.41,8.7-6.32v-4.28c-2.88,3.35-5.62,5.7-8.22,7.07-2.6,1.37-5.46,2.05-8.59,2.05-3.81,0-6.91-.93-9.3-2.8-2.39-1.87-4.15-4.63-5.27-8.28-1.12-3.65-1.68-7.7-1.68-12.14s.77-8.62,2.31-12.3c1.2-2.88,3.09-5.21,5.68-6.99,2.59-1.78,5.43-2.67,8.53-2.67,3.71,0,7.03,1.2,9.96,3.59,2.93,2.39,4.93,5.84,6.01,10.33h1.43V24.07h-1.43c-.17,1.25-.54,2.15-1.12,2.73-.57,.57-1.25,.86-2.03,.86-.61,0-2.04-.44-4.28-1.32-3.88-1.51-7.57-2.27-11.06-2.27-4.74,0-9.21,1.17-13.42,3.52-4.21,2.34-7.56,5.64-10.03,9.89-2.48,4.25-3.72,8.74-3.72,13.48,0,4.49,1.12,8.73,3.35,12.71,2.23,3.98,5.41,7.03,9.52,9.16Z"/>
        <path d="M0,0V100H100V0H0ZM93.75,93.75H6.25V6.25H93.75V93.75Z"/>
    </g>
</svg>