<?xml version="1.0" encoding="UTF-8"?><svg id="Layer_1" xmlns="http://www.w3.org/2000/svg" viewBox="0 0 200 100"><defs><style>.cls-1{fill:#010101;}</style></defs><g><path class="cls-1" d="M0,0V100H100V0H0ZM93.75,93.75H6.25V6.25H93.75V93.75Z"/><path class="cls-1" d="M38.76,72.81c4.11,2.12,8.82,3.19,14.12,3.19,4.03,0,7.55-.65,10.57-1.96,3.01-1.31,5.91-3.41,8.7-6.32v-4.28c-2.88,3.35-5.62,5.7-8.22,7.07-2.6,1.37-5.46,2.05-8.59,2.05-3.81,0-6.91-.93-9.3-2.8-2.39-1.87-4.15-4.63-5.27-8.28-1.12-3.65-1.69-7.7-1.69-12.14s.77-8.62,2.31-12.3c1.2-2.88,3.09-5.21,5.68-6.99,2.59-1.78,5.43-2.67,8.53-2.67,3.71,0,7.03,1.2,9.96,3.59,2.93,2.39,4.93,5.84,6.01,10.33h1.43V24.07h-1.43c-.17,1.25-.54,2.15-1.12,2.73-.57,.57-1.25,.86-2.03,.86-.61,0-2.04-.44-4.29-1.32-3.88-1.51-7.57-2.27-11.06-2.27-4.74,0-9.21,1.17-13.42,3.52-4.21,2.34-7.56,5.64-10.03,9.89-2.48,4.25-3.72,8.74-3.72,13.48,0,4.49,1.12,8.73,3.35,12.71,2.23,3.98,5.41,7.03,9.52,9.16Z"/></g><path class="cls-1" d="M100,0V100h100V0H100Zm87.52,26.56c-.93,.07-1.71,.33-2.34,.77-.64,.44-1.2,1.11-1.68,2.01-.15,.29-.92,2.19-2.31,5.68l-15.56,40.98h-1.43l-12.3-32.01-13.55,32.01h-1.35l-16.33-40.54c-1.66-4.08-2.82-6.54-3.48-7.4-.66-.85-1.77-1.35-3.33-1.5v-1.35h21.53v1.35c-1.73,.05-2.89,.31-3.46,.79-.57,.48-.86,1.07-.86,1.78,0,.93,.6,2.89,1.79,5.9l9.74,24.1,7.8-18.82-2.05-5.27c-1.12-2.88-1.99-4.8-2.6-5.77-.61-.96-1.31-1.65-2.11-2.07-.79-.42-1.96-.62-3.5-.62v-1.35h24.06v1.35c-1.69,.02-2.89,.16-3.63,.4-.51,.17-.92,.46-1.21,.86-.29,.4-.44,.86-.44,1.37,0,.56,.55,2.28,1.65,5.16l9.05,23.51,8.09-21.28c.85-2.2,1.38-3.7,1.58-4.5,.2-.81,.29-1.55,.29-2.23,0-1-.34-1.79-1.03-2.36-.68-.57-1.99-.88-3.92-.93v-1.35h12.89v1.35Z"/></svg>