<svg xmlns="http://www.w3.org/2000/svg"
     viewBox="0 0 768 768"
     height="100px"
     width="100px">
    <g>
        <path d="M384,128l0,256l256,0C640,242.62,525.38,128,384,128z"/>
        <path d="M128,384c0,141.38,114.62,256,256,256l0-256L128,384z"/>
    </g>
    <g>
        <path d="M384,143c32.54,0,64.1,6.37,93.8,18.93c28.7,12.14,54.47,29.52,76.61,51.65c22.14,22.14,39.52,47.91,51.65,76.61
		C618.63,319.9,625,351.46,625,384s-6.37,64.1-18.93,93.8c-12.14,28.7-29.52,54.47-51.65,76.61
		c-22.14,22.14-47.91,39.52-76.61,51.65C448.1,618.63,416.54,625,384,625s-64.1-6.37-93.8-18.93
		c-28.7-12.14-54.47-29.52-76.61-51.65c-22.14-22.14-39.52-47.91-51.65-76.61C149.37,448.1,143,416.54,143,384s6.37-64.1,18.93-93.8
		c12.14-28.7,29.52-54.47,51.65-76.61c22.14-22.14,47.91-39.52,76.61-51.65C319.9,149.37,351.46,143,384,143 M384,128
		c-141.38,0-256,114.62-256,256s114.62,256,256,256s256-114.62,256-256S525.38,128,384,128L384,128z"/>
    </g>
    <g>
        <path d="M753,15v738H15V15H753 M768,0H0v768h768V0L768,0z"/>
    </g>
</svg>
